# xmcd
#
# Track frame offsets:
#	150
#	12778
#	25659
#	43278
#	59040
#	73645
#	90129
#	105030
#	117904
#	134963
#	150789
#	163805
#	177305
#	189411
#	206801
#	223505
#
# Disc length: 3201 seconds
#
# Revision: 1
# Processed by: cddbd v1.5.2PL0 Copyright (c) Steve Scherf et al.
# Submitted via: audiograbber 1.83.01
#
DISCID=d70c7f10
DTITLE=Bruce Morgan - Pacific GOLD Volume 1
DYEAR=1900
DGENRE=
TTITLE0=I´ve Found A Town
TTITLE1=My Sweet Country Cousin
TTITLE2=Morning Train
TTITLE3=Call Me Joanee
TTITLE4=I´m Comming Back Home
TTITLE5=Songwrtiers Blues
TTITLE6=Bumpkin Boy
TTITLE7=Fishing
TTITLE8=Automatic
TTITLE9=Strings Of Love
TTITLE10=Oh God It´s Been Good
TTITLE11=Blossom In The Park
TTITLE12=Big Belly Blues
TTITLE13=Red Moon
TTITLE14=Hooray Our Wedding Day
TTITLE15=Sail For New Zealand
EXTD=
EXTT0=
EXTT1=
EXTT2=
EXTT3=
EXTT4=
EXTT5=
EXTT6=
EXTT7=
EXTT8=
EXTT9=
EXTT10=
EXTT11=
EXTT12=
EXTT13=
EXTT14=
EXTT15=
PLAYORDER=
